<?xml version="1.0" encoding="UTF-8"?><svg id="Layer_1" xmlns="http://www.w3.org/2000/svg" xmlns:xlink="http://www.w3.org/1999/xlink" viewBox="0 0 4838 108"><defs><style>.cls-1{fill:#fff;}.cls-2{clip-path:url(#clippath-2);}.cls-3{clip-path:url(#clippath-1);}.cls-4{clip-path:url(#clippath);}.cls-5{fill:none;}.cls-6{clip-path:url(#clippath-3);}.cls-7{fill:#29abe2;}</style><clipPath id="clippath"><rect class="cls-5" x="361" width="1156" height="1067"/></clipPath><clipPath id="clippath-1"><rect class="cls-5" x="2454" width="1156" height="1067"/></clipPath><clipPath id="clippath-2"><rect class="cls-5" x="1297" width="1156" height="1067"/></clipPath><clipPath id="clippath-3"><rect class="cls-5" x="141" width="1156" height="1067"/></clipPath></defs><g id="background"><rect class="cls-7" x="2454" width="192" height="108"/></g><g id="main"><g class="cls-4"><g><path id="path1724" class="cls-1" d="M4653,244c13-2,27-25,4-15h0c13-17,27-18,4-5h0c2-27,4-27,6,0h0c2-7,35,0,45,2h0c-63-1-125-1-185,0Z"/><path id="path1724-2" class="cls-1" d="M4478,394c13-2,27-25,4-15h0c13-17,27-18,4-5h0c2-27,4-27,6,0h0c2-7,35,0,45,2h0c-63-1-125-1-185,0Z"/><path id="path1724-3" class="cls-1" d="M454,65c13-2,27-25,4-15h0c13-17,27-18,4-5h0c2-27,4-27,6,0h0c2-7,35,0,45,2h0c-63-1-125-1-185,0Z"/><path id="path1724-4" class="cls-1" d="M4626,563c13-2,27-25,4-15h0c13-17,27-18,4-5h0c2-27,4-27,6,0h0c2-7,35,0,45,2h0c-63-1-125-1-185,0Z"/><path id="path1724-5" class="cls-1" d="M4478,732c13-2,27-25,4-15h0c13-17,27-18,4-5h0c2-27,4-27,6,0h0c2-7,35,0,45,2h0c-63-1-125-1-185,0Z"/><path id="path1724-6" class="cls-1" d="M458,983c13-2,27-25,4-15h0c13-17,27-18,4-5h0c2-27,4-27,6,0h0c2-7,35,0,45,2h0c-63-1-125-1-185,0Z"/></g><g><path id="path1724-7" class="cls-1" d="M4075,244c13-2,27-25,4-15h0c13-17,27-18,4-5h0c2-27,4-27,6,0h0c2-7,35,0,45,2h0c-63-1-125-1-185,0Z"/><path id="path1724-8" class="cls-1" d="M4292,125c13-2,27-25,4-15h0c13-17,27-18,4-5h0c2-27,4-27,6,0h0c2-7,35,0,45,2h0c-63-1-125-1-185,0Z"/><path id="path1724-9" class="cls-1" d="M3899,394c13-2,27-25,4-15h0c13-17,27-18,4-5h0c2-27,4-27,6,0h0c2-7,35,0,45,2h0c-63-1-125-1-185,0Z"/><path id="path1724-10" class="cls-1" d="M3961,65c13-2,27-25,4-15h0c13-17,27-18,4-5h0c2-27,4-27,6,0h0c2-7,35,0,45,2h0c-63-1-125-1-185,0Z"/><path id="path1724-11" class="cls-1" d="M4047,563c13-2,27-25,4-15h0c13-17,27-18,4-5h0c2-27,4-27,6,0h0c2-7,35,0,45,2h0c-63-1-125-1-185,0Z"/><path id="path1724-12" class="cls-1" d="M4292,454c13-2,27-25,4-15h0c13-17,27-18,4-5h0c2-27,4-27,6,0h0c2-7,35,0,45,2h0c-63-1-125-1-185,0Z"/><path id="path1724-13" class="cls-1" d="M39,732c13-2,27-25,4-15h0c13-17,27-18,4-5h0c2-27,4-27,6,0h0c2-7,35,0,45,2h0c-63-1-125-1-185,0Z"/><path id="path1724-14" class="cls-1" d="M4002,983c13-2,27-25,4-15h0c13-17,27-18,4-5h0c2-27,4-27,6,0h0c2-7,35,0,45,2h0c-63-1-125-1-185,0Z"/><path id="path1724-15" class="cls-1" d="M4292,1042c13-2,27-25,4-15h0c13-17,27-18,4-5h0c2-27,4-27,6,0h0c2-7,35,0,45,2h0c-63-1-125-1-185,0Z"/><path id="path1724-16" class="cls-1" d="M4209,782c13-2,27-25,4-15h0c13-17,27-18,4-5h0c2-27,4-27,6,0h0c2-7,35,0,45,2h0c-63-1-125-1-185,0Z"/></g><g><path id="path1724-17" class="cls-1" d="M3497,244c13-2,27-25,4-15h0c13-17,27-18,4-5h0c2-27,4-27,6,0h0c2-7,35,0,45,2h0c-63-1-125-1-185,0Z"/><path id="path1724-18" class="cls-1" d="M3714,125c13-2,27-25,4-15h0c13-17,27-18,4-5h0c2-27,4-27,6,0h0c2-7,35,0,45,2h0c-63-1-125-1-185,0Z"/><path id="path1724-19" class="cls-1" d="M3469,563c13-2,27-25,4-15h0c13-17,27-18,4-5h0c2-27,4-27,6,0h0c2-7,35,0,45,2h0c-63-1-125-1-185,0Z"/><path id="path1724-20" class="cls-1" d="M3714,454c13-2,27-25,4-15h0c13-17,27-18,4-5h0c2-27,4-27,6,0h0c2-7,35,0,45,2h0c-63-1-125-1-185,0Z"/><path id="path1724-21" class="cls-1" d="M3714,1042c13-2,27-25,4-15h0c13-17,27-18,4-5h0c2-27,4-27,6,0h0c2-7,35,0,45,2h0c-63-1-125-1-185,0Z"/><path id="path1724-22" class="cls-1" d="M3631,782c13-2,27-25,4-15h0c13-17,27-18,4-5h0c2-27,4-27,6,0h0c2-7,35,0,45,2h0c-63-1-125-1-185,0Z"/></g></g><g class="cls-3"><g><path id="path1724-23" class="cls-1" d="M3497,244c13-2,27-25,4-15h0c13-17,27-18,4-5h0c2-27,4-27,6,0h0c2-7,35,0,45,2h0c-63-1-125-1-185,0Z"/><path id="path1724-24" class="cls-1" d="M3321,394c13-2,27-25,4-15h0c13-17,27-18,4-5h0c2-27,4-27,6,0h0c2-7,35,0,45,2h0c-63-1-125-1-185,0Z"/><path id="path1724-25" class="cls-1" d="M3383,65c13-2,27-25,4-15h0c13-17,27-18,4-5h0c2-27,4-27,6,0h0c2-7,35,0,45,2h0c-63-1-125-1-185,0Z"/><path id="path1724-26" class="cls-1" d="M3469,563c13-2,27-25,4-15h0c13-17,27-18,4-5h0c2-27,4-27,6,0h0c2-7,35,0,45,2h0c-63-1-125-1-185,0Z"/><path id="path1724-27" class="cls-1" d="M3321,732c13-2,27-25,4-15h0c13-17,27-18,4-5h0c2-27,4-27,6,0h0c2-7,35,0,45,2h0c-63-1-125-1-185,0Z"/><path id="path1724-28" class="cls-1" d="M3423,983c13-2,27-25,4-15h0c13-17,27-18,4-5h0c2-27,4-27,6,0h0c2-7,35,0,45,2h0c-63-1-125-1-185,0Z"/></g><g><path id="path1724-29" class="cls-1" d="M2918,244c13-2,27-25,4-15h0c13-17,27-18,4-5h0c2-27,4-27,6,0h0c2-7,35,0,45,2h0c-63-1-125-1-185,0Z"/><path id="path1724-30" class="cls-1" d="M3136,125c13-2,27-25,4-15h0c13-17,27-18,4-5h0c2-27,4-27,6,0h0c2-7,35,0,45,2h0c-63-1-125-1-185,0Z"/><path id="path1724-31" class="cls-1" d="M2743,394c13-2,27-25,4-15h0c13-17,27-18,4-5h0c2-27,4-27,6,0h0c2-7,35,0,45,2h0c-63-1-125-1-185,0Z"/><path id="path1724-32" class="cls-1" d="M2805,65c13-2,27-25,4-15h0c13-17,27-18,4-5h0c2-27,4-27,6,0h0c2-7,35,0,45,2h0c-63-1-125-1-185,0Z"/><path id="path1724-33" class="cls-1" d="M2891,563c13-2,27-25,4-15h0c13-17,27-18,4-5h0c2-27,4-27,6,0h0c2-7,35,0,45,2h0c-63-1-125-1-185,0Z"/><path id="path1724-34" class="cls-1" d="M3136,454c13-2,27-25,4-15h0c13-17,27-18,4-5h0c2-27,4-27,6,0h0c2-7,35,0,45,2h0c-63-1-125-1-185,0Z"/><path id="path1724-35" class="cls-1" d="M2743,732c13-2,27-25,4-15h0c13-17,27-18,4-5h0c2-27,4-27,6,0h0c2-7,35,0,45,2h0c-63-1-125-1-185,0Z"/><path id="path1724-36" class="cls-1" d="M2845,983c13-2,27-25,4-15h0c13-17,27-18,4-5h0c2-27,4-27,6,0h0c2-7,35,0,45,2h0c-63-1-125-1-185,0Z"/><path id="path1724-37" class="cls-1" d="M3136,1042c13-2,27-25,4-15h0c13-17,27-18,4-5h0c2-27,4-27,6,0h0c2-7,35,0,45,2h0c-63-1-125-1-185,0Z"/><path id="path1724-38" class="cls-1" d="M3053,782c13-2,27-25,4-15h0c13-17,27-18,4-5h0c2-27,4-27,6,0h0c2-7,35,0,45,2h0c-63-1-125-1-185,0Z"/></g><g><path id="path1724-39" class="cls-1" d="M234,244c13-2,27-25,4-15h0c13-17,27-18,4-5h0c2-27,4-27,6,0h0c2-7,35,0,45,2h0c-63-1-125-1-185,0Z"/><path id="path1724-40" class="cls-1" d="M2558,125c13-2,27-25,4-15h0c13-17,27-18,4-5h0c2-27,4-27,6,0h0c2-7,35,0,45,2h0c-63-1-125-1-185,0Z"/><path id="path1724-41" class="cls-1" d="M2313,563c13-2,27-25,4-15h0c13-17,27-18,4-5h0c2-27,4-27,6,0h0c2-7,35,0,45,2h0c-63-1-125-1-185,0Z"/><path id="path1724-42" class="cls-1" d="M2558,454c13-2,27-25,4-15h0c13-17,27-18,4-5h0c2-27,4-27,6,0h0c2-7,35,0,45,2h0c-63-1-125-1-185,0Z"/><path id="path1724-43" class="cls-1" d="M2558,1042c13-2,27-25,4-15h0c13-17,27-18,4-5h0c2-27,4-27,6,0h0c2-7,35,0,45,2h0c-63-1-125-1-185,0Z"/><path id="path1724-44" class="cls-1" d="M2474,782c13-2,27-25,4-15h0c13-17,27-18,4-5h0c2-27,4-27,6,0h0c2-7,35,0,45,2h0c-63-1-125-1-185,0Z"/></g></g><g class="cls-2"><g><path id="path1724-45" class="cls-1" d="M234,244c13-2,27-25,4-15h0c13-17,27-18,4-5h0c2-27,4-27,6,0h0c2-7,35,0,45,2h0c-63-1-125-1-185,0Z"/><path id="path1724-46" class="cls-1" d="M2165,394c13-2,27-25,4-15h0c13-17,27-18,4-5h0c2-27,4-27,6,0h0c2-7,35,0,45,2h0c-63-1-125-1-185,0Z"/><path id="path1724-47" class="cls-1" d="M2227,65c13-2,27-25,4-15h0c13-17,27-18,4-5h0c2-27,4-27,6,0h0c2-7,35,0,45,2h0c-63-1-125-1-185,0Z"/><path id="path1724-48" class="cls-1" d="M2313,563c13-2,27-25,4-15h0c13-17,27-18,4-5h0c2-27,4-27,6,0h0c2-7,35,0,45,2h0c-63-1-125-1-185,0Z"/><path id="path1724-49" class="cls-1" d="M2165,732c13-2,27-25,4-15h0c13-17,27-18,4-5h0c2-27,4-27,6,0h0c2-7,35,0,45,2h0c-63-1-125-1-185,0Z"/><path id="path1724-50" class="cls-1" d="M2267,983c13-2,27-25,4-15h0c13-17,27-18,4-5h0c2-27,4-27,6,0h0c2-7,35,0,45,2h0c-63-1-125-1-185,0Z"/></g><g><path id="path1724-51" class="cls-1" d="M1762,244c13-2,27-25,4-15h0c13-17,27-18,4-5h0c2-27,4-27,6,0h0c2-7,35,0,45,2h0c-63-1-125-1-185,0Z"/><path id="path1724-52" class="cls-1" d="M198,125c13-2,27-25,4-15h0c13-17,27-18,4-5h0c2-27,4-27,6,0h0c2-7,35,0,45,2h0c-63-1-125-1-185,0Z"/><path id="path1724-53" class="cls-1" d="M1587,394c13-2,27-25,4-15h0c13-17,27-18,4-5h0c2-27,4-27,6,0h0c2-7,35,0,45,2h0c-63-1-125-1-185,0Z"/><path id="path1724-54" class="cls-1" d="M1649,65c13-2,27-25,4-15h0c13-17,27-18,4-5h0c2-27,4-27,6,0h0c2-7,35,0,45,2h0c-63-1-125-1-185,0Z"/><path id="path1724-55" class="cls-1" d="M1735,563c13-2,27-25,4-15h0c13-17,27-18,4-5h0c2-27,4-27,6,0h0c2-7,35,0,45,2h0c-63-1-125-1-185,0Z"/><path id="path1724-56" class="cls-1" d="M198,454c13-2,27-25,4-15h0c13-17,27-18,4-5h0c2-27,4-27,6,0h0c2-7,35,0,45,2h0c-63-1-125-1-185,0Z"/><path id="path1724-57" class="cls-1" d="M1587,732c13-2,27-25,4-15h0c13-17,27-18,4-5h0c2-27,4-27,6,0h0c2-7,35,0,45,2h0c-63-1-125-1-185,0Z"/><path id="path1724-58" class="cls-1" d="M1689,983c13-2,27-25,4-15h0c13-17,27-18,4-5h0c2-27,4-27,6,0h0c2-7,35,0,45,2h0c-63-1-125-1-185,0Z"/><path id="path1724-59" class="cls-1" d="M198,1042c13-2,27-25,4-15h0c13-17,27-18,4-5h0c2-27,4-27,6,0h0c2-7,35,0,45,2h0c-63-1-125-1-185,0Z"/><path id="path1724-60" class="cls-1" d="M1896,782c13-2,27-25,4-15h0c13-17,27-18,4-5h0c2-27,4-27,6,0h0c2-7,35,0,45,2h0c-63-1-125-1-185,0Z"/></g><g><path id="path1724-61" class="cls-1" d="M1184,244c13-2,27-25,4-15h0c13-17,27-18,4-5h0c2-27,4-27,6,0h0c2-7,35,0,45,2h0c-63-1-125-1-185,0Z"/><path id="path1724-62" class="cls-1" d="M1401,125c13-2,27-25,4-15h0c13-17,27-18,4-5h0c2-27,4-27,6,0h0c2-7,35,0,45,2h0c-63-1-125-1-185,0Z"/><path id="path1724-63" class="cls-1" d="M1156,563c13-2,27-25,4-15h0c13-17,27-18,4-5h0c2-27,4-27,6,0h0c2-7,35,0,45,2h0c-63-1-125-1-185,0Z"/><path id="path1724-64" class="cls-1" d="M1401,454c13-2,27-25,4-15h0c13-17,27-18,4-5h0c2-27,4-27,6,0h0c2-7,35,0,45,2h0c-63-1-125-1-185,0Z"/><path id="path1724-65" class="cls-1" d="M1402,1042c13-2,27-25,4-15h0c13-17,27-18,4-5h0c2-27,4-27,6,0h0c2-7,35,0,45,2h0c-63-1-125-1-185,0Z"/><path id="path1724-66" class="cls-1" d="M1318,782c13-2,27-25,4-15h0c13-17,27-18,4-5h0c2-27,4-27,6,0h0c2-7,35,0,45,2h0c-63-1-125-1-185,0Z"/></g></g><g class="cls-6"><g><path id="path1724-67" class="cls-1" d="M1184,244c13-2,27-25,4-15h0c13-17,27-18,4-5h0c2-27,4-27,6,0h0c2-7,35,0,45,2h0c-63-1-125-1-185,0Z"/><path id="path1724-68" class="cls-1" d="M1008,394c13-2,27-25,4-15h0c13-17,27-18,4-5h0c2-27,4-27,6,0h0c2-7,35,0,45,2h0c-63-1-125-1-185,0Z"/><path id="path1724-69" class="cls-1" d="M107,65c13-2,27-25,4-15h0c13-17,27-18,4-5h0c2-27,4-27,6,0h0c2-7,35,0,45,2h0c-63-1-125-1-185,0Z"/><path id="path1724-70" class="cls-1" d="M1156,563c13-2,27-25,4-15h0c13-17,27-18,4-5h0c2-27,4-27,6,0h0c2-7,35,0,45,2h0c-63-1-125-1-185,0Z"/><path id="path1724-71" class="cls-1" d="M1009,732c13-2,27-25,4-15h0c13-17,27-18,4-5h0c2-27,4-27,6,0h0c2-7,35,0,45,2h0c-63-1-125-1-185,0Z"/><path id="path1724-72" class="cls-1" d="M1111,983c13-2,27-25,4-15h0c13-17,27-18,4-5h0c2-27,4-27,6,0h0c2-7,35,0,45,2h0c-63-1-125-1-185,0Z"/></g><g><path id="path1724-73" class="cls-1" d="M606,244c13-2,27-25,4-15h0c13-17,27-18,4-5h0c2-27,4-27,6,0h0c2-7,35,0,45,2h0c-63-1-125-1-185,0Z"/><path id="path1724-74" class="cls-1" d="M823,125c13-2,27-25,4-15h0c13-17,27-18,4-5h0c2-27,4-27,6,0h0c2-7,35,0,45,2h0c-63-1-125-1-185,0Z"/><path id="path1724-75" class="cls-1" d="M43,394c13-2,27-25,4-15h0c13-17,27-18,4-5h0c2-27,4-27,6,0h0c2-7,35,0,45,2h0c-63-1-125-1-185,0Z"/><path id="path1724-76" class="cls-1" d="M492,65c13-2,27-25,4-15h0c13-17,27-18,4-5h0c2-27,4-27,6,0h0c2-7,35,0,45,2h0c-63-1-125-1-185,0Z"/><path id="path1724-77" class="cls-1" d="M578,563c13-2,27-25,4-15h0c13-17,27-18,4-5h0c2-27,4-27,6,0h0c2-7,35,0,45,2h0c-63-1-125-1-185,0Z"/><path id="path1724-78" class="cls-1" d="M823,454c13-2,27-25,4-15h0c13-17,27-18,4-5h0c2-27,4-27,6,0h0c2-7,35,0,45,2h0c-63-1-125-1-185,0Z"/><path id="path1724-79" class="cls-1" d="M43,732c13-2,27-25,4-15h0c13-17,27-18,4-5h0c2-27,4-27,6,0h0c2-7,35,0,45,2h0c-63-1-125-1-185,0Z"/><path id="path1724-80" class="cls-1" d="M532,983c13-2,27-25,4-15h0c13-17,27-18,4-5h0c2-27,4-27,6,0h0c2-7,35,0,45,2h0c-63-1-125-1-185,0Z"/><path id="path1724-81" class="cls-1" d="M823,1042c13-2,27-25,4-15h0c13-17,27-18,4-5h0c2-27,4-27,6,0h0c2-7,35,0,45,2h0c-63-1-125-1-185,0Z"/><path id="path1724-82" class="cls-1" d="M74,782c13-2,27-25,4-15h0c13-17,27-18,4-5h0c2-27,4-27,6,0h0c2-7,35,0,45,2h0c-63-1-125-1-185,0Z"/></g><g><path id="path1724-83" class="cls-1" d="M27,244c13-2,27-25,4-15h0c13-17,27-18,4-5h0c2-27,4-27,6,0h0c2-7,35,0,45,2h0c-63-1-125-1-185,0Z"/><path id="path1724-84" class="cls-1" d="M245,125c13-2,27-25,4-15h0c13-17,27-18,4-5h0c2-27,4-27,6,0h0c2-7,35,0,45,2h0c-63-1-125-1-185,0Z"/><path id="path1724-85" class="cls-1" d="M0,563c13-2,27-25,4-15h0c13-17,27-18,4-5h0c2-27,4-27,6,0h0c2-7,35,0,45,2h0c-63-1-125-1-185,0Z"/><path id="path1724-86" class="cls-1" d="M245,454c13-2,27-25,4-15h0c13-17,27-18,4-5h0c2-27,4-27,6,0h0c2-7,35,0,45,2h0c-63-1-125-1-185,0Z"/><path id="path1724-87" class="cls-1" d="M245,1042c13-2,27-25,4-15h0c13-17,27-18,4-5h0c2-27,4-27,6,0h0c2-7,35,0,45,2h0c-63-1-125-1-185,0Z"/><path id="path1724-88" class="cls-1" d="M162,782c13-2,27-25,4-15h0c13-17,27-18,4-5h0c2-27,4-27,6,0h0c2-7,35,0,45,2h0c-63-1-125-1-185,0Z"/></g></g></g></svg>